# xmcd
#
# Track frame offsets:
#	150
#	12638
#	24825
#	38588
#	52975
#	64020
#	77230
#	89183
#	100745
#	113390
#
# Disc length: 1748
#
# Revision: 1
# Processed by: cddbd v1.5.2PL0 Copyright (c) Steve Scherf et al.
# Submitted via: kJams Pro (development) 1.0patch47.39
#
DISCID=7106d20a
DTITLE=Various Artist - JVC 016
DYEAR=1980
DGENRE=Country
TTITLE0=Unknown - I Really Don't Want To Know
TTITLE1=Hank Williams - Your Cheating Heart
TTITLE2=Tom Jones - Green Green Grass Of Home
TTITLE3=John Denver - Take Me Home Country Road
TTITLE4=Hank Williams - Jambalaya
TTITLE5=Hank Williams - Hey Good Lookin'
TTITLE6=Hank Williams - Take These Chains From My Heart
TTITLE7=Unknown - Good Ol' Boy
TTITLE8=Lynn Anderson - Rose Garden
TTITLE9=Oliver Juice Newton - Angel Of The Morning
EXTD=
EXTT0=
EXTT1=
EXTT2=
EXTT3=
EXTT4=
EXTT5=
EXTT6=
EXTT7=
EXTT8=
EXTT9=
PLAYORDER=
